<svg width="16" height="20" viewBox="0 0 16 20" fill="none" xmlns="http://www.w3.org/2000/svg">
    <path d="M8.01997 6.23001C7.28997 6.23001 6.15997 5.40001 4.96997 5.43001C3.39997 5.45001 1.95997 6.34001 1.14997 7.75001C-0.48003 10.58 0.72997 14.76 2.31997 17.06C3.09997 18.18 4.01997 19.44 5.23997 19.4C6.40997 19.35 6.84997 18.64 8.26997 18.64C9.67997 18.64 10.08 19.4 11.32 19.37C12.58 19.35 13.38 18.23 14.15 17.1C15.04 15.8 15.41 14.54 15.43 14.47C15.4 14.46 12.98 13.53 12.95 10.73C12.93 8.39001 14.86 7.27001 14.95 7.22001C13.85 5.61001 12.16 5.43001 11.57 5.39001C10.03 5.27001 8.73997 6.23001 8.01997 6.23001V6.23001ZM10.62 3.87001C11.27 3.09001 11.7 2.00001 11.58 0.920013C10.65 0.960013 9.52997 1.54001 8.85997 2.32001C8.25997 3.01001 7.73997 4.12001 7.87997 5.18001C8.90997 5.26001 9.96997 4.65001 10.62 3.87001" fill="#6B6B6B"/>
</svg>
